# xmcd
# 
# Track frame offsets:
#     150
#     23888
#     37587
#     54295
#     72711
#     91233
#     111942
#     126667
#     146036
#     168890
#     189188
#     200183
#     214506
#     239296
# 
# Disc length: 3397
# 
# Revision: 1
# Processed by: cddbd v1.5.2PL0 Copyright (c) Steve Scherf et al.
# Submitted via: fre:ac v1.0.31
# 
DISCID=c70d430e
DTITLE=Beach House - B Sides And Rarities
DYEAR=0
DGENRE=Rock/Pop
TTITLE0=Chariot
TTITLE1=Baby
TTITLE2=Equal Mind
TTITLE3=Used To Be [2008 Single Version]
TTITLE4=White Moon [iTunes Session Remix]
TTITLE5=Baseball Diamond
TTITLE6=Norway [iTunes Session Remix]
TTITLE7=Play The Game
TTITLE8=The Arrangement
TTITLE9=Saturn Song
TTITLE10=Rain In Numbers
TTITLE11=I Do Not Care For The Winter Sun
TTITLE12=10 Mile Stereo [Cough Syrup Remix]
TTITLE13=Wherever You Go
EXTD=
EXTT0=
EXTT1=
EXTT2=
EXTT3=
EXTT4=
EXTT5=
EXTT6=
EXTT7=
EXTT8=
EXTT9=
EXTT10=
EXTT11=
EXTT12=
EXTT13=
PLAYORDER=
